<svg width="56" height="56" viewBox="0 0 56 56" fill="none" xmlns="http://www.w3.org/2000/svg">
<path d="M0 28C0 18.5678 0 13.8517 1.73389 10.2059C3.50013 6.49204 6.49204 3.50013 10.2059 1.73389C13.8517 0 18.5678 0 28 0C37.4322 0 42.1483 0 45.7941 1.73389C49.508 3.50013 52.4999 6.49204 54.2661 10.2059C56 13.8517 56 18.5678 56 28C56 37.4322 56 42.1483 54.2661 45.7941C52.4999 49.508 49.508 52.4999 45.7941 54.2661C42.1483 56 37.4322 56 28 56C18.5678 56 13.8517 56 10.2059 54.2661C6.49204 52.4999 3.50013 49.508 1.73389 45.7941C0 42.1483 0 37.4322 0 28Z" fill="#222222"/>
<path d="M13.2222 8.55556H43.5556V44.3333H13.2222V8.55556Z" fill="white"/>
<path fill-rule="evenodd" clip-rule="evenodd" d="M41.1021 7.80082H12.6858C11.7852 7.80082 11.9477 8.08061 11.3108 8.71747C10.6739 9.35434 10.3942 9.19179 10.3942 10.0925L10.3942 43.5503C10.3942 40.8785 9.7573 44.7467 10.3942 45.3836C11.031 46.0204 10.8685 45.8419 11.7691 45.8419H42.4057C43.3063 45.8419 43.2151 45.5621 43.852 44.9253C44.4888 44.2884 44.3103 43.5343 44.3103 42.6336V10.0925C44.3103 9.19179 44.0305 8.89601 43.3936 8.25915C42.7568 7.62228 42.0027 7.80082 41.1021 7.80082ZM37.2462 31.464C36.6179 32.7612 35.9795 32.8291 36.258 31.464C36.9745 27.9356 36.4889 20.3558 31.1505 19.5136V35.6444C31.1505 38.9487 29.6291 41.825 25.5845 43.1257C21.6588 44.3788 17.2678 43.0713 16.2388 40.2527C15.2099 37.4341 17.5191 34.0042 21.3939 32.5914C23.5571 31.8036 26.0633 31.5998 27.7545 32.2484V9.32576H31.1505C31.1505 17.3232 44.955 15.5709 37.2462 31.464Z" fill="#222222"/>
</svg>
